<svg xmlns="http://www.w3.org/2000/svg" xmlns:xlink="http://www.w3.org/1999/xlink" xmlns:lucid="lucid" width="1362" height="843.17"><g transform="translate(-39 282.17364583333335)" lucid:page-tab-id="0_0"><path d="M400 120.6a6 6 0 0 1 6-6h248a6 6 0 0 1 6 6v109.16a6 6 0 0 1-6 6H406a6 6 0 0 1-6-6zM800 69.7a6 6 0 0 1 6-6h248a6 6 0 0 1 6 6v109.16a6 6 0 0 1-6 6H806a6 6 0 0 1-6-6zM940-113.6a6 6 0 0 1 6-6h248a6 6 0 0 1 6 6V-4.4a6 6 0 0 1-6 6H946a6 6 0 0 1-6-6zM940-275.17a6 6 0 0 1 6-6h248a6 6 0 0 1 6 6V-166a6 6 0 0 1-6 6H946a6 6 0 0 1-6-6zM580-275.17a6 6 0 0 1 6-6h248a6 6 0 0 1 6 6V-166a6 6 0 0 1-6 6H586a6 6 0 0 1-6-6z" stroke="#000" stroke-opacity="0" stroke-width="2" fill="#f9f9f9"/><path d="M840.42-221.8h4.72m4.72 0h9.43m4.7 0h9.45m4.72 0h9.43m4.72 0h9.44m4.7 0h9.45m4.73 0h9.43m4.72 0h4.72M840.43-221.8h-3.5" stroke="#f9f9f9" fill="none"/><path d="M940-221.32h-.5v-.95h.5z" stroke="#f9f9f9" stroke-width=".05" fill="#f9f9f9"/><path d="M799.56 124.25H720.5M799.55 124.25h3.5M720.5 124.25h-.5M660.5 175.17h59" stroke="#f9f9f9" fill="none"/><path d="M660.5 175.65h-.5v-.95h.5z" stroke="#f9f9f9" stroke-width=".05" fill="#f9f9f9"/><path d="M719.5 175.17h.5" stroke="#f9f9f9" fill="none"/><path d="M40 326a6 6 0 0 1 6-6h228a6 6 0 0 1 6 6v68a6 6 0 0 1-6 6H46a6 6 0 0 1-6-6zM600 326a6 6 0 0 1 6-6h228a6 6 0 0 1 6 6v68a6 6 0 0 1-6 6H606a6 6 0 0 1-6-6zM320 326a6 6 0 0 1 6-6h228a6 6 0 0 1 6 6v68a6 6 0 0 1-6 6H326a6 6 0 0 1-6-6zM880 326a6 6 0 0 1 6-6h228a6 6 0 0 1 6 6v68a6 6 0 0 1-6 6H886a6 6 0 0 1-6-6zM1160 326.4a6 6 0 0 1 6-6h228a6 6 0 0 1 6 6v68a6 6 0 0 1-6 6h-228a6 6 0 0 1-6-6zM460 486a6 6 0 0 1 6-6h228a6 6 0 0 1 6 6v68a6 6 0 0 1-6 6H466a6 6 0 0 1-6-6zM740 486a6 6 0 0 1 6-6h228a6 6 0 0 1 6 6v68a6 6 0 0 1-6 6H746a6 6 0 0 1-6-6z" stroke="#000" stroke-opacity="0" stroke-width="2" fill="#f9f9f9"/><path d="M160 319.5v-31.62a6 6 0 0 1 6-6h553.5" stroke="#f9f9f9" fill="none"/><path d="M160.47 320h-.94v-.5h.94z" stroke="#f9f9f9" stroke-width=".05" fill="#f9f9f9"/><path d="M719.5 281.9h.5M440 319.5v-31.62a6 6 0 0 1 6-6h273.73" stroke="#f9f9f9" fill="none"/><path d="M440.48 320h-.96v-.5h.96z" stroke="#f9f9f9" stroke-width=".05" fill="#f9f9f9"/><path d="M720 282.17v-.5M1000 319.5v-31.62a6 6 0 0 0-6-6H720.28" stroke="#f9f9f9" fill="none"/><path d="M1000.48 320h-.96v-.5h.96z" stroke="#f9f9f9" stroke-width=".05" fill="#f9f9f9"/><path d="M720 281.6v.5M1280 319.9v-32a6 6 0 0 0-6-6H720.26" stroke="#f9f9f9" fill="none"/><path d="M1280.47 320.4h-.94v-.5h.94z" stroke="#f9f9f9" stroke-width=".05" fill="#f9f9f9"/><path d="M720 282.16v-.52M720 400.5V434a6 6 0 0 1-6 6H586a6 6 0 0 0-6 6v33.5" stroke="#f9f9f9" fill="none"/><path d="M720.48 400.5h-.96v-.5h.96zM580.48 480h-.96v-.5h.96z" stroke="#f9f9f9" stroke-width=".05" fill="#f9f9f9"/><path d="M720 400.5V434a6 6 0 0 0 6 6h128a6 6 0 0 1 6 6v33.5" stroke="#f9f9f9" fill="none"/><path d="M720.48 400.5h-.96v-.5h.96zM860.48 480h-.96v-.5h.96z" stroke="#f9f9f9" stroke-width=".05" fill="#f9f9f9"/><path d="M615-269.58a6 6 0 0 1 6-6h178.98a6 6 0 0 1 6 6v30a6 6 0 0 1-6 6H621a6 6 0 0 1-6-6z" fill="none"/><use xlink:href="#a" transform="matrix(1,0,0,1,620,-270.5850014230419) translate(0.5282118055555429 24.89214409722222)"/><use xlink:href="#b" transform="matrix(1,0,0,1,620,-270.5850014230419) translate(102.81770833333333 24.89214409722222)"/><path d="M613-204a6 6 0 0 1 6-6h178.98a6 6 0 0 1 6 6v27.6a6 6 0 0 1-6 6H619a6 6 0 0 1-6-6z" fill="none"/><use xlink:href="#c" transform="matrix(1,0,0,1,618.0003642987249,-205.0018214936248) translate(0.014973958333314386 23.89214409722222)"/><use xlink:href="#d" transform="matrix(1,0,0,1,618.0003642987249,-205.0018214936248) translate(59.08506944444443 23.89214409722222)"/><path d="M581.98-221.8H839" stroke="#101010" stroke-width="2" stroke-linecap="round" fill="none"/><path d="M1026.34-203.6a6 6 0 0 1 6-6h78.8a6 6 0 0 1 6 6v27.6a6 6 0 0 1-6 6h-78.8a6 6 0 0 1-6-6z" fill="none"/><use xlink:href="#e" transform="matrix(1,0,0,1,1031.3431418185764,-204.58682291666668) translate(0.10340711805555003 23.89214409722222)"/><path d="M961.12-263.6a6 6 0 0 1 6-6h209.25a6 6 0 0 1 6 6v27.6a6 6 0 0 1-6 6H967.12a6 6 0 0 1-6-6z" fill="none"/><use xlink:href="#f" transform="matrix(1,0,0,1,966.1173803710938,-264.5868229166667) translate(4.844401041666671 23.89214409722222)"/><use xlink:href="#g" transform="matrix(1,0,0,1,966.1173803710938,-264.5868229166667) translate(129.50151909722223 23.89214409722222)"/><path d="M941-221.8h258" stroke="#000" stroke-width="2" stroke-linecap="round" fill="none"/><path d="M840 79.96a6 6 0 0 1 6-6h168a6 6 0 0 1 6 6v28.63a6 6 0 0 1-6 6H846a6 6 0 0 1-6-6z" fill="none"/><use xlink:href="#h" transform="matrix(1,0,0,1,845,78.96388181844682) translate(1.0677083333333286 24.39214409722222)"/><use xlink:href="#i" transform="matrix(1,0,0,1,845,78.96388181844682) translate(72.431640625 24.39214409722222)"/><path d="M801 124.33h258" stroke="#000" stroke-width="2" stroke-linecap="round" fill="none"/><path d="M425 122.9a6 6 0 0 1 6-6h198a6 6 0 0 1 6 6v45.33a6 6 0 0 1-6 6H431a6 6 0 0 1-6-6z" fill="none"/><use xlink:href="#j" transform="matrix(1,0,0,1,430,121.89297758205105) translate(9.51171875 20.3857421875)"/><use xlink:href="#k" transform="matrix(1,0,0,1,430,121.89297758205105) translate(85.126953125 20.3857421875)"/><use xlink:href="#l" transform="matrix(1,0,0,1,430,121.89297758205105) translate(153.818359375 20.3857421875)"/><use xlink:href="#m" transform="matrix(1,0,0,1,430,121.89297758205105) translate(38.0078125 42.1650390625)"/><path d="M401 175.17h258" stroke="#000" stroke-width="2" stroke-linecap="round" fill="none"/><path d="M478.43 190.97a6 6 0 0 1 6-6h91.14a6 6 0 0 1 6 6v27.58a6 6 0 0 1-6 6h-91.14a6 6 0 0 1-6-6z" fill="none"/><use xlink:href="#n" transform="matrix(1,0,0,1,483.43358506944446,189.96581032482197) translate(0.43858506944443576 23.89214409722222)"/><path d="M66.94 326a6 6 0 0 1 6-6h174.12a6 6 0 0 1 6 6v28a6 6 0 0 1-6 6H72.94a6 6 0 0 1-6-6z" fill="none"/><use xlink:href="#o" transform="matrix(1,0,0,1,71.9389019097222,325) translate(0.4439019097222001 23.89214409722222)"/><path d="M41 360h238" stroke="#000" stroke-width="2" stroke-linecap="round" fill="none"/><path d="M80 365.6a6 6 0 0 1 6-6h148a6 6 0 0 1 6 6v28a6 6 0 0 1-6 6H86a6 6 0 0 1-6-6z" fill="none"/><use xlink:href="#p" transform="matrix(1,0,0,1,85,364.5868229166667) translate(3.6480034722222285 23.89214409722222)"/><use xlink:href="#q" transform="matrix(1,0,0,1,85,364.5868229166667) translate(69.81987847222223 23.89214409722222)"/><path d="M350 326a6 6 0 0 1 6-6h168a6 6 0 0 1 6 6v28a6 6 0 0 1-6 6H356a6 6 0 0 1-6-6z" fill="none"/><use xlink:href="#r" transform="matrix(1,0,0,1,355,325) translate(42.07302517361111 23.89214409722222)"/><path d="M380 366a6 6 0 0 1 6-6h108a6 6 0 0 1 6 6v27.6a6 6 0 0 1-6 6H386a6 6 0 0 1-6-6z" fill="none"/><use xlink:href="#s" transform="matrix(1,0,0,1,385,365) translate(3.1212022569444358 23.89214409722222)"/><path d="M630 325.6a6 6 0 0 1 6-6h168a6 6 0 0 1 6 6v28a6 6 0 0 1-6 6H636a6 6 0 0 1-6-6z" fill="none"/><use xlink:href="#t" transform="matrix(1,0,0,1,635,324.5868229166667) translate(15.390624999999986 23.89214409722222)"/><path d="M622.25 365.6a6 6 0 0 1 6-6h183.5a6 6 0 0 1 6 6v27.57a6 6 0 0 1-6 6h-183.5a6 6 0 0 1-6-6z" fill="none"/><use xlink:href="#u" transform="matrix(1,0,0,1,627.2549869791667,364.5868229166667) translate(10.398546006944429 23.89214409722222)"/><use xlink:href="#v" transform="matrix(1,0,0,1,627.2549869791667,364.5868229166667) translate(79.10080295138889 23.89214409722222)"/><path d="M910 325.6a6 6 0 0 1 6-6h168a6 6 0 0 1 6 6v28a6 6 0 0 1-6 6H916a6 6 0 0 1-6-6z" fill="none"/><use xlink:href="#w" transform="matrix(1,0,0,1,915,324.5868229166667) translate(33.30023871527778 23.89214409722222)"/><path d="M902.25 365.6a6 6 0 0 1 6-6h183.5a6 6 0 0 1 6 6v27.57a6 6 0 0 1-6 6h-183.5a6 6 0 0 1-6-6z" fill="none"/><use xlink:href="#x" transform="matrix(1,0,0,1,907.2549869791667,364.5868229166667) translate(4.26953125 23.89214409722222)"/><use xlink:href="#y" transform="matrix(1,0,0,1,907.2549869791667,364.5868229166667) translate(83.82139756944444 23.89214409722222)"/><path d="M1190 328a6 6 0 0 1 6-6h168a6 6 0 0 1 6 6v28a6 6 0 0 1-6 6h-168a6 6 0 0 1-6-6z" fill="none"/><use xlink:href="#z" transform="matrix(1,0,0,1,1195,327) translate(13.051215277777786 23.89214409722222)"/><path d="M490 486a6 6 0 0 1 6-6h168a6 6 0 0 1 6 6v28a6 6 0 0 1-6 6H496a6 6 0 0 1-6-6z" fill="none"/><use xlink:href="#A" transform="matrix(1,0,0,1,495,485) translate(37.734375 23.89214409722222)"/><path d="M770 486a6 6 0 0 1 6-6h168a6 6 0 0 1 6 6v28a6 6 0 0 1-6 6H776a6 6 0 0 1-6-6z" fill="none"/><use xlink:href="#B" transform="matrix(1,0,0,1,775,485) translate(19.27571614583333 23.89214409722222)"/><path d="M1210 365.6a6 6 0 0 1 6-6h128a6 6 0 0 1 6 6v27.57a6 6 0 0 1-6 6h-128a6 6 0 0 1-6-6z" fill="none"/><use xlink:href="#C" transform="matrix(1,0,0,1,1215,364.5868229166667) translate(0.7080078125 23.89214409722222)"/><use xlink:href="#D" transform="matrix(1,0,0,1,1215,364.5868229166667) translate(36.70627170138889 23.89214409722222)"/><path d="M480 526a6 6 0 0 1 6-6h183.5a6 6 0 0 1 6 6v27.6a6 6 0 0 1-6 6H486a6 6 0 0 1-6-6z" fill="none"/><use xlink:href="#E" transform="matrix(1,0,0,1,484.99999999999994,525) translate(16.48578559027777 23.89214409722222)"/><use xlink:href="#F" transform="matrix(1,0,0,1,484.99999999999994,525) translate(55.73057725694444 23.89214409722222)"/><path d="M760 526a6 6 0 0 1 6-6h183.5a6 6 0 0 1 6 6v27.6a6 6 0 0 1-6 6H766a6 6 0 0 1-6-6z" fill="none"/><use xlink:href="#C" transform="matrix(1,0,0,1,765,525) translate(49.8044704861111 23.89214409722222)"/><use xlink:href="#G" transform="matrix(1,0,0,1,765,525) translate(85.802734375 23.89214409722222)"/><path d="M321 360h238M601 360h238M881 360h238M1161 360h238M461 520h238M741 520h238" stroke="#000" stroke-width="2" stroke-linecap="round" fill="none"/><path d="M813.75 140.07a6 6 0 0 1 6-6h220.5a6 6 0 0 1 6 6v27.58a6 6 0 0 1-6 6h-220.5a6 6 0 0 1-6-6z" fill="none"/><g><use xlink:href="#H" transform="matrix(1,0,0,1,818.7452913411457,139.06722959565536) translate(31.4050564236111 23.89214409722222)"/><use xlink:href="#I" transform="matrix(1,0,0,1,818.7452913411457,139.06722959565536) translate(121.0068359375 23.89214409722222)"/></g><path d="M940-43.2a6 6 0 0 1 6-6h248a6 6 0 0 1 6 6v27.58a6 6 0 0 1-6 6H946a6 6 0 0 1-6-6z" fill="none"/><g><use xlink:href="#C" transform="matrix(1,0,0,1,945,-44.208460035291466) translate(9.485677083333329 23.89214409722222)"/><use xlink:href="#J" transform="matrix(1,0,0,1,945,-44.208460035291466) translate(45.48394097222222 23.89214409722222)"/><use xlink:href="#K" transform="matrix(1,0,0,1,945,-44.208460035291466) translate(106.15342881944444 23.89214409722222)"/><use xlink:href="#L" transform="matrix(1,0,0,1,945,-44.208460035291466) translate(220.00868055555554 23.89214409722222)"/></g><path d="M1005.56-102.8a6 6 0 0 1 6-6h116.88a6 6 0 0 1 6 6v27.6a6 6 0 0 1-6 6h-116.88a6 6 0 0 1-6-6z" fill="none"/><g><use xlink:href="#M" transform="matrix(1,0,0,1,1010.5608637152778,-103.79346145833335) translate(0.06586371527778567 23.89214409722222)"/></g><path d="M941-59h258" stroke="#000" stroke-width="2" stroke-linecap="round" fill="none"/><path d="M1070-159.5v4.38m0 4.38v8.76m0 4.38v8.75m0 4.38v4.38" stroke="#f9f9f9" fill="none"/><path d="M1070.47-159.5h-.94v-.5h.94zM1070.47-119.6h-.94v-.5h.94z" stroke="#f9f9f9" stroke-width=".05" fill="#f9f9f9"/><path d="M720 281.4v-440.9M720 281.37v.5" stroke="#f9f9f9" fill="none"/><path d="M720.48-159.5h-.96v-.5h.96z" stroke="#f9f9f9" stroke-width=".05" fill="#f9f9f9"/><defs><path d="M659 0H135v-1490h529c448 0 721 280 721 744 0 466-273 746-726 746zM440-263h204c287 0 437-148 437-483 0-333-150-481-435-481H440v964" id="N"/><path d="M128 0v-1118h300V0H128zm150-1264c-91 0-165-68-165-154 0-85 74-154 165-154 90 0 165 69 165 154 0 86-75 154-165 154" id="O"/><path d="M128 0v-1118h290v195h12c54-169 184-238 367-200v268c-27-8-86-15-130-15-138 0-239 95-239 234V0H128" id="P"/><path d="M633 22C291 22 81-200 81-553c0-345 210-579 537-579 292 0 525 185 525 567v84H378c7 183 109 277 260 277 105 0 184-46 216-132l272 51C1071-99 893 22 633 22zM380-669h474c-15-146-94-237-233-237-143 0-229 99-241 237" id="Q"/><path d="M128 0v-1490h300v802h17l366-430h347L740-633 1179 0H826L514-456l-86 97V0H128" id="R"/><path d="M683-1118v229H474v562c0 71 29 104 102 104 23 0 73-7 95-13l43 225C647 9 580 16 520 16 296 16 174-96 174-301v-588H20v-229h154v-266h300v266h209" id="S"/><path d="M513 14c-232 0-385-159-385-421v-711h300v659c0 139 76 222 202 222 127 0 217-86 217-234v-647h301V0H864l-4-232C797-74 683 14 513 14" id="T"/><g id="a"><use transform="matrix(0.01193576388888889,0,0,0.01193576388888889,0,0)" xlink:href="#N"/><use transform="matrix(0.01193576388888889,0,0,0.01193576388888889,17.652994791666668,0)" xlink:href="#O"/><use transform="matrix(0.01193576388888889,0,0,0.01193576388888889,24.27734375,0)" xlink:href="#P"/><use transform="matrix(0.01193576388888889,0,0,0.01193576388888889,33.63498263888889,0)" xlink:href="#Q"/><use transform="matrix(0.01193576388888889,0,0,0.01193576388888889,48.19661458333334,0)" xlink:href="#R"/><use transform="matrix(0.01193576388888889,0,0,0.01193576388888889,62.376302083333336,0)" xlink:href="#S"/><use transform="matrix(0.01193576388888889,0,0,0.01193576388888889,71.32812500000001,0)" xlink:href="#T"/><use transform="matrix(0.01193576388888889,0,0,0.01193576388888889,86.54622395833334,0)" xlink:href="#P"/></g><path d="M750 21c-371 0-615-218-615-544v-967h305v942c0 174 123 299 310 299s309-125 309-299v-942h306v967c0 326-247 544-615 544" id="U"/><path d="M440 22C227 22 68-92 68-313c0-250 202-322 422-343 195-21 271-24 271-105 0-95-63-149-175-149-116 0-187 57-211 129l-275-46c57-194 237-305 487-305 240 0 474 108 474 379V0H777v-155h-10C713-51 605 22 440 22zm85-211c140 0 238-93 238-211v-121c-37 26-156 42-222 51-111 16-185 59-185 149 0 87 70 132 169 132" id="V"/><path d="M128 0v-1118h278l12 217c60-163 185-234 319-234 143 0 236 81 288 251 63-172 205-251 359-251 205 0 357 138 357 381V0h-301v-697c0-126-76-187-177-187-114 0-184 79-184 196V0H789v-705c0-109-72-179-174-179-106 0-187 74-187 208V0H128" id="W"/><g id="b"><use transform="matrix(0.01193576388888889,0,0,0.01193576388888889,0,0)" xlink:href="#U"/><use transform="matrix(0.01193576388888889,0,0,0.01193576388888889,17.891710069444446,0)" xlink:href="#S"/><use transform="matrix(0.01193576388888889,0,0,0.01193576388888889,26.962890625000004,0)" xlink:href="#V"/><use transform="matrix(0.01193576388888889,0,0,0.01193576388888889,41.15451388888889,0)" xlink:href="#W"/><use transform="matrix(0.01193576388888889,0,0,0.01193576388888889,63.46245659722223,0)" xlink:href="#V"/></g><path fill="#101010" d="M52 0l541-1490h220L1361 0h-200l-149-416H398L254 0H52zm404-582h497c-103-290-145-390-251-756-108 377-145 460-246 756" id="X"/><path fill="#101010" d="M338-670V0H158v-1118h173l1 207c72-158 192-221 342-221 226 0 378 139 378 422V0H872v-695c0-172-96-275-252-275-161 0-282 109-282 300" id="Y"/><path fill="#101010" d="M577 24c-279 0-473-224-473-580 0-354 195-576 474-576 218 0 287 134 324 193h14v-551h180V0H922v-173h-20C865-111 790 24 577 24zm27-161c203 0 314-172 314-421 0-247-108-413-314-413-212 0-317 181-317 413 0 235 108 421 317 421" id="Z"/><path fill="#101010" d="M158 0v-1118h180V0H158zm91-1301c-68 0-125-53-125-119s57-119 125-119c69 0 126 53 126 119s-57 119-126 119" id="aa"/><g id="c"><use transform="matrix(0.01193576388888889,0,0,0.01193576388888889,0,0)" xlink:href="#X"/><use transform="matrix(0.01193576388888889,0,0,0.01193576388888889,16.865234375,0)" xlink:href="#Y"/><use transform="matrix(0.01193576388888889,0,0,0.01193576388888889,31.307508680555557,0)" xlink:href="#Z"/><use transform="matrix(0.01193576388888889,0,0,0.01193576388888889,46.27495659722223,0)" xlink:href="#aa"/></g><path fill="#101010" d="M180 0v-1490h190c0 262 1 526-3 784 217-279 467-523 702-784h249L716-845 1319 0h-225L585-716 370-489V0H180" id="ab"/><path fill="#101010" d="M537 14c-226 0-379-139-379-422v-710h180v695c0 172 97 275 253 275 160 0 281-109 281-300v-670h181V0H879v-209C806-46 684 14 537 14" id="ac"/><path fill="#101010" d="M158 0v-1118h174v172h12c41-113 157-188 290-188 26 0 70 2 91 3v181c-11-2-60-10-108-10-161 0-279 109-279 260V0H158" id="ad"/><path fill="#101010" d="M471 26C259 26 90-98 90-318c0-256 228-303 435-329 202-27 287-16 287-108 0-139-79-219-234-219-161 0-248 86-283 164l-173-57c86-203 278-265 451-265 150 0 419 46 419 395V0H815v-152h-12C765-73 660 26 471 26zm31-159c199 0 310-134 310-271v-155c-30 35-226 55-295 64-131 17-246 59-246 186 0 116 97 176 231 176" id="ae"/><path fill="#101010" d="M409 0L70-1118h191c89 329 165 560 243 925 75-353 154-601 240-925h192c85 325 161 564 235 922 77-354 157-598 244-922h191L1267 0h-179c-86-307-176-590-250-913C763-588 675-308 588 0H409" id="af"/><g id="d"><use transform="matrix(0.01193576388888889,0,0,0.01193576388888889,0,0)" xlink:href="#ab"/><use transform="matrix(0.01193576388888889,0,0,0.01193576388888889,15.600043402777777,0)" xlink:href="#ac"/><use transform="matrix(0.01193576388888889,0,0,0.01193576388888889,30.054253472222218,0)" xlink:href="#ad"/><use transform="matrix(0.01193576388888889,0,0,0.01193576388888889,39.638671875,0)" xlink:href="#Y"/><use transform="matrix(0.01193576388888889,0,0,0.01193576388888889,54.08094618055556,0)" xlink:href="#aa"/><use transform="matrix(0.01193576388888889,0,0,0.01193576388888889,60.001085069444436,0)" xlink:href="#ae"/><use transform="matrix(0.01193576388888889,0,0,0.01193576388888889,73.72721354166667,0)" xlink:href="#af"/><use transform="matrix(0.01193576388888889,0,0,0.01193576388888889,93.73155381944446,0)" xlink:href="#ae"/><use transform="matrix(0.01193576388888889,0,0,0.01193576388888889,107.45768229166667,0)" xlink:href="#Y"/></g><path d="M180 0v-1490h190c0 262 1 526-3 784 217-279 467-523 702-784h249L716-845 1319 0h-225L585-716 370-489V0H180" id="ag"/><path d="M471 26C259 26 90-98 90-318c0-256 228-303 435-329 202-27 287-16 287-108 0-139-79-219-234-219-161 0-248 86-283 164l-173-57c86-203 278-265 451-265 150 0 419 46 419 395V0H815v-152h-12C765-73 660 26 471 26zm31-159c199 0 310-134 310-271v-155c-30 35-226 55-295 64-131 17-246 59-246 186 0 116 97 176 231 176" id="ah"/><path d="M158 0v-1118h174v172h12c41-113 157-188 290-188 26 0 70 2 91 3v181c-11-2-60-10-108-10-161 0-279 109-279 260V0H158" id="ai"/><path d="M598-1118v154H368v674c0 100 37 144 132 144 23 0 62-6 92-12L629-6c-37 13-88 20-134 20-193 0-307-107-307-290v-688H20v-154h168v-266h180v266h230" id="aj"/><path d="M158 0v-1118h180V0H158zm91-1301c-68 0-125-53-125-119s57-119 125-119c69 0 126 53 126 119s-57 119-126 119" id="ak"/><path d="M158 0v-1490h180v865h22l478-493h223L593-638 1096 0H865L456-523 338-412V0H158" id="al"/><g id="e"><use transform="matrix(0.01193576388888889,0,0,0.01193576388888889,0,0)" xlink:href="#ag"/><use transform="matrix(0.01193576388888889,0,0,0.01193576388888889,16.42361111111111,0)" xlink:href="#ah"/><use transform="matrix(0.01193576388888889,0,0,0.01193576388888889,30.149739583333336,0)" xlink:href="#ai"/><use transform="matrix(0.01193576388888889,0,0,0.01193576388888889,39.734157986111114,0)" xlink:href="#aj"/><use transform="matrix(0.01193576388888889,0,0,0.01193576388888889,47.73111979166667,0)" xlink:href="#ak"/><use transform="matrix(0.01193576388888889,0,0,0.01193576388888889,53.65125868055556,0)" xlink:href="#al"/><use transform="matrix(0.01193576388888889,0,0,0.01193576388888889,67.06705729166667,0)" xlink:href="#ah"/></g><path fill="#101010" d="M135 0v-1490h305c1 251 0 501-5 746 157-254 405-512 598-746h373L849-845 1422 0h-361L638-644 440-426V0H135" id="am"/><path fill="#101010" d="M628 22C291 22 81-210 81-554c0-346 210-578 547-578 336 0 547 232 547 578 0 344-211 576-547 576zm0-236c160 0 242-146 242-341 0-197-82-341-242-341S387-753 387-555c0 195 81 341 241 341" id="an"/><path fill="#101010" d="M128 0v-1118h278l12 217c60-163 185-234 319-234 143 0 236 81 288 251 63-172 205-251 359-251 205 0 357 138 357 381V0h-301v-697c0-126-76-187-177-187-114 0-184 79-184 196V0H789v-705c0-109-72-179-174-179-106 0-187 74-187 208V0H128" id="ao"/><path fill="#101010" d="M128 0v-1118h300V0H128zm150-1264c-91 0-165-68-165-154 0-85 74-154 165-154 90 0 165 69 165 154 0 86-75 154-165 154" id="ap"/><path fill="#101010" d="M572 22C302 22 117-98 78-306l279-48c29 105 101 156 224 156 114 0 185-48 185-115 0-118-228-130-337-155-215-49-322-150-322-317 0-215 187-347 470-347 265 0 424 116 466 298l-266 47c-24-76-87-130-196-130-98 0-174 46-174 113 0 56 38 95 144 117l201 40c216 44 320 143 320 302 0 220-207 367-500 367" id="aq"/><path fill="#101010" d="M440 22C227 22 68-92 68-313c0-250 202-322 422-343 195-21 271-24 271-105 0-95-63-149-175-149-116 0-187 57-211 129l-275-46c57-194 237-305 487-305 240 0 474 108 474 379V0H777v-155h-10C713-51 605 22 440 22zm85-211c140 0 238-93 238-211v-121c-37 26-156 42-222 51-111 16-185 59-185 149 0 87 70 132 169 132" id="ar"/><path fill="#101010" d="M128 0v-1118h290v195h12c54-169 184-238 367-200v268c-27-8-86-15-130-15-138 0-239 95-239 234V0H128" id="as"/><g id="f"><use transform="matrix(0.01193576388888889,0,0,0.01193576388888889,0,0)" xlink:href="#am"/><use transform="matrix(0.01193576388888889,0,0,0.01193576388888889,16.614583333333336,0)" xlink:href="#an"/><use transform="matrix(0.01193576388888889,0,0,0.01193576388888889,31.60590277777778,0)" xlink:href="#ao"/><use transform="matrix(0.01193576388888889,0,0,0.01193576388888889,53.913845486111114,0)" xlink:href="#ap"/><use transform="matrix(0.01193576388888889,0,0,0.01193576388888889,60.53819444444445,0)" xlink:href="#aq"/><use transform="matrix(0.01193576388888889,0,0,0.01193576388888889,74.228515625,0)" xlink:href="#ar"/><use transform="matrix(0.01193576388888889,0,0,0.01193576388888889,88.42013888888889,0)" xlink:href="#as"/><use transform="matrix(0.01193576388888889,0,0,0.01193576388888889,98.55360243055554,0)" xlink:href="#ap"/><use transform="matrix(0.01193576388888889,0,0,0.01193576388888889,105.17795138888887,0)" xlink:href="#aq"/></g><path fill="#101010" d="M750 21c-371 0-615-218-615-544v-967h305v942c0 174 123 299 310 299s309-125 309-299v-942h306v967c0 326-247 544-615 544" id="at"/><path fill="#101010" d="M683-1118v229H474v562c0 71 29 104 102 104 23 0 73-7 95-13l43 225C647 9 580 16 520 16 296 16 174-96 174-301v-588H20v-229h154v-266h300v266h209" id="au"/><g id="g"><use transform="matrix(0.01193576388888889,0,0,0.01193576388888889,0,0)" xlink:href="#at"/><use transform="matrix(0.01193576388888889,0,0,0.01193576388888889,17.891710069444446,0)" xlink:href="#au"/><use transform="matrix(0.01193576388888889,0,0,0.01193576388888889,26.962890625000004,0)" xlink:href="#ar"/><use transform="matrix(0.01193576388888889,0,0,0.01193576388888889,41.15451388888889,0)" xlink:href="#ao"/><use transform="matrix(0.01193576388888889,0,0,0.01193576388888889,63.46245659722223,0)" xlink:href="#ar"/></g><path fill="#101010" d="M449 0L49-1490h333c89 395 194 758 253 1185 65-426 176-790 269-1185h317c93 394 201 758 268 1181 60-425 164-788 253-1181h334L1675 0h-348c-90-376-204-711-266-1118C1004-714 886-373 798 0H449" id="av"/><path fill="#101010" d="M128 0v-1490h300v802h17l366-430h347L740-633 1179 0H826L514-456l-86 97V0H128" id="aw"/><path fill="#101010" d="M428-1490V0H128v-1490h300" id="ax"/><g id="h"><use transform="matrix(0.01193576388888889,0,0,0.01193576388888889,0,0)" xlink:href="#av"/><use transform="matrix(0.01193576388888889,0,0,0.01193576388888889,23.955078125,0)" xlink:href="#ar"/><use transform="matrix(0.01193576388888889,0,0,0.01193576388888889,38.146701388888886,0)" xlink:href="#aw"/><use transform="matrix(0.01193576388888889,0,0,0.01193576388888889,52.326388888888886,0)" xlink:href="#ap"/><use transform="matrix(0.01193576388888889,0,0,0.01193576388888889,58.950737847222214,0)" xlink:href="#ax"/></g><path fill="#101010" d="M659 0H135v-1490h529c448 0 721 280 721 744 0 466-273 746-726 746zM440-263h204c287 0 437-148 437-483 0-333-150-481-435-481H440v964" id="ay"/><path fill="#101010" d="M633 22C291 22 81-200 81-553c0-345 210-579 537-579 292 0 525 185 525 567v84H378c7 183 109 277 260 277 105 0 184-46 216-132l272 51C1071-99 893 22 633 22zM380-669h474c-15-146-94-237-233-237-143 0-229 99-241 237" id="az"/><path fill="#101010" d="M513 14c-232 0-385-159-385-421v-711h300v659c0 139 76 222 202 222 127 0 217-86 217-234v-647h301V0H864l-4-232C797-74 683 14 513 14" id="aA"/><g id="i"><use transform="matrix(0.01193576388888889,0,0,0.01193576388888889,0,0)" xlink:href="#ay"/><use transform="matrix(0.01193576388888889,0,0,0.01193576388888889,17.652994791666668,0)" xlink:href="#ap"/><use transform="matrix(0.01193576388888889,0,0,0.01193576388888889,24.27734375,0)" xlink:href="#as"/><use transform="matrix(0.01193576388888889,0,0,0.01193576388888889,33.63498263888889,0)" xlink:href="#az"/><use transform="matrix(0.01193576388888889,0,0,0.01193576388888889,48.19661458333334,0)" xlink:href="#aw"/><use transform="matrix(0.01193576388888889,0,0,0.01193576388888889,62.376302083333336,0)" xlink:href="#au"/><use transform="matrix(0.01193576388888889,0,0,0.01193576388888889,71.32812500000001,0)" xlink:href="#aA"/><use transform="matrix(0.01193576388888889,0,0,0.01193576388888889,86.54622395833334,0)" xlink:href="#as"/></g><path fill="#101010" d="M135 0v-1490h305v602h649v-602h306V0h-306v-635H440V0H135" id="aB"/><path fill="#101010" d="M428-647V0H128v-1490h294v586c65-146 175-228 341-228 232 0 385 159 385 421V0H847v-659c0-139-76-222-202-222-128 0-217 86-217 234" id="aC"/><path fill="#101010" d="M119 395l88-620h300L323 395H119" id="aD"/><g id="j"><use transform="matrix(0.009765625,0,0,0.009765625,0,0)" xlink:href="#aB"/><use transform="matrix(0.009765625,0,0,0.009765625,14.94140625,0)" xlink:href="#az"/><use transform="matrix(0.009765625,0,0,0.009765625,27.05078125,0)" xlink:href="#ar"/><use transform="matrix(0.009765625,0,0,0.009765625,38.662109375,0)" xlink:href="#ax"/><use transform="matrix(0.009765625,0,0,0.009765625,44.375,0)" xlink:href="#au"/><use transform="matrix(0.009765625,0,0,0.009765625,51.748046875,0)" xlink:href="#aC"/><use transform="matrix(0.009765625,0,0,0.009765625,64.19921875,0)" xlink:href="#aD"/></g><path fill="#101010" d="M681 22C323 22 94-145 85-462h297c10 151 131 226 296 226 163 0 271-77 271-190 0-102-95-149-257-189l-164-41c-252-61-403-188-403-405 0-269 236-449 560-449 330 0 546 183 551 445H941c-11-119-106-188-259-188-156 0-244 72-244 172-3 156 226 185 373 221 250 61 445 186 445 436 0 271-213 446-575 446" id="aE"/><path fill="#101010" d="M750-1118v229H516V0H217v-889H20v-229h197v-86c0-238 156-356 363-356 94 0 178 20 215 31l-54 226c-25-7-61-15-100-15-123-3-131 84-125 200h234" id="aF"/><path fill="#101010" d="M120 396l69-226c123 42 245 23 254-107l8-60L31-1118h319c87 288 199 559 259 872 72-308 185-583 277-872h315L726 132c-68 181-186 294-410 294-79 0-153-13-196-30" id="aG"/><g id="k"><use transform="matrix(0.009765625,0,0,0.009765625,0,0)" xlink:href="#aE"/><use transform="matrix(0.009765625,0,0,0.009765625,13.095703125,0)" xlink:href="#ar"/><use transform="matrix(0.009765625,0,0,0.009765625,24.70703125,0)" xlink:href="#aF"/><use transform="matrix(0.009765625,0,0,0.009765625,32.236328125,0)" xlink:href="#az"/><use transform="matrix(0.009765625,0,0,0.009765625,44.150390625,0)" xlink:href="#au"/><use transform="matrix(0.009765625,0,0,0.009765625,51.9140625,0)" xlink:href="#aG"/></g><path fill="#101010" d="M428-647V0H128v-1118h283l4 231c63-156 176-245 348-245 232 0 384 159 384 421V0H847v-659c0-139-76-222-202-222-128 0-217 86-217 234" id="aH"/><path fill="#101010" d="M537 19C279 19 81-185 81-557c0-382 206-575 454-575 190 0 278 113 318 202h10v-560h300V0H868v-179h-15C812-89 719 19 537 19zm92-241c153 0 240-134 240-336 0-203-86-334-240-334-158 0-240 138-240 334 0 197 84 336 240 336" id="aI"/><g id="l"><use transform="matrix(0.009765625,0,0,0.009765625,0,0)" xlink:href="#ar"/><use transform="matrix(0.009765625,0,0,0.009765625,11.611328125,0)" xlink:href="#aH"/><use transform="matrix(0.009765625,0,0,0.009765625,24.0625,0)" xlink:href="#aI"/></g><path fill="#101010" d="M135 0v-1490h997v253H440v360h640v249H440v375h694V0H135" id="aJ"/><path fill="#101010" d="M443 0L31-1118h319c90 293 199 572 268 885 66-313 175-593 264-885h315L784 0H443" id="aK"/><g id="m"><use transform="matrix(0.009765625,0,0,0.009765625,0,0)" xlink:href="#aJ"/><use transform="matrix(0.009765625,0,0,0.009765625,12.1484375,0)" xlink:href="#aH"/><use transform="matrix(0.009765625,0,0,0.009765625,24.2578125,0)" xlink:href="#aK"/><use transform="matrix(0.009765625,0,0,0.009765625,36.25,0)" xlink:href="#ap"/><use transform="matrix(0.009765625,0,0,0.009765625,41.669921875,0)" xlink:href="#as"/><use transform="matrix(0.009765625,0,0,0.009765625,49.326171875,0)" xlink:href="#an"/><use transform="matrix(0.009765625,0,0,0.009765625,61.591796875,0)" xlink:href="#aH"/><use transform="matrix(0.009765625,0,0,0.009765625,74.04296875,0)" xlink:href="#ao"/><use transform="matrix(0.009765625,0,0,0.009765625,92.294921875,0)" xlink:href="#az"/><use transform="matrix(0.009765625,0,0,0.009765625,104.208984375,0)" xlink:href="#aH"/><use transform="matrix(0.009765625,0,0,0.009765625,116.66015625,0)" xlink:href="#au"/></g><path fill="#101010" d="M657 26c-323 0-524-166-541-416h195c15 169 171 246 346 246 202 0 356-106 356-265 5-203-294-238-475-293-239-73-380-191-380-389 0-252 224-419 512-419 294 0 499 171 508 396H992c-17-145-151-228-328-228-193 0-321 102-321 242 0 156 175 211 284 241l149 41c160 44 422 134 422 412 0 244-197 432-541 432" id="aL"/><path fill="#101010" d="M613 24c-304 0-509-231-509-576 0-350 205-580 509-580 305 0 511 230 511 580 0 345-206 576-511 576zm0-161c226 0 329-195 329-415 0-222-103-419-329-419-223 0-326 196-326 419 0 220 103 415 326 415" id="aM"/><path fill="#101010" d="M158 418v-1536h174v179h20c37-59 106-193 324-193 279 0 474 222 474 576 0 356-194 580-473 580-213 0-288-135-325-197h-14v591H158zm492-555c209 0 317-186 317-421 0-232-105-413-317-413-206 0-314 166-314 413 0 249 111 421 314 421" id="aN"/><g id="n"><use transform="matrix(0.01193576388888889,0,0,0.01193576388888889,0,0)" xlink:href="#aL"/><use transform="matrix(0.01193576388888889,0,0,0.01193576388888889,15.683593750000002,0)" xlink:href="#aM"/><use transform="matrix(0.01193576388888889,0,0,0.01193576388888889,30.340711805555557,0)" xlink:href="#aN"/><use transform="matrix(0.01193576388888889,0,0,0.01193576388888889,45.30815972222223,0)" xlink:href="#aa"/><use transform="matrix(0.01193576388888889,0,0,0.01193576388888889,51.228298611111114,0)" xlink:href="#ae"/><use transform="matrix(0.01193576388888889,0,0,0.01193576388888889,64.95442708333334,0)" xlink:href="#Y"/><use transform="matrix(0.01193576388888889,0,0,0.01193576388888889,79.3967013888889,0)" xlink:href="#ae"/></g><path fill="#101010" d="M49 0l509-1490h400L1480 0h-339l-115-346H497L386 0H49zm524-585h374c-75-213-124-402-192-666-66 268-110 453-182 666" id="aO"/><g id="o"><use transform="matrix(0.01193576388888889,0,0,0.01193576388888889,0,0)" xlink:href="#aO"/><use transform="matrix(0.01193576388888889,0,0,0.01193576388888889,17.688802083333336,0)" xlink:href="#aI"/><use transform="matrix(0.01193576388888889,0,0,0.01193576388888889,33.09787326388889,0)" xlink:href="#ao"/><use transform="matrix(0.01193576388888889,0,0,0.01193576388888889,55.40581597222223,0)" xlink:href="#ap"/><use transform="matrix(0.01193576388888889,0,0,0.01193576388888889,62.03016493055556,0)" xlink:href="#aH"/><use transform="matrix(0.01193576388888889,0,0,0.01193576388888889,77.2482638888889,0)" xlink:href="#ap"/><use transform="matrix(0.01193576388888889,0,0,0.01193576388888889,83.87261284722223,0)" xlink:href="#aq"/><use transform="matrix(0.01193576388888889,0,0,0.01193576388888889,97.56293402777779,0)" xlink:href="#au"/><use transform="matrix(0.01193576388888889,0,0,0.01193576388888889,106.51475694444446,0)" xlink:href="#as"/><use transform="matrix(0.01193576388888889,0,0,0.01193576388888889,116.1349826388889,0)" xlink:href="#ar"/><use transform="matrix(0.01193576388888889,0,0,0.01193576388888889,130.3266059027778,0)" xlink:href="#au"/><use transform="matrix(0.01193576388888889,0,0,0.01193576388888889,139.27842881944446,0)" xlink:href="#ap"/><use transform="matrix(0.01193576388888889,0,0,0.01193576388888889,145.9027777777778,0)" xlink:href="#an"/><use transform="matrix(0.01193576388888889,0,0,0.01193576388888889,160.89409722222226,0)" xlink:href="#aH"/></g><path fill="#101010" d="M628 24c-324 0-524-230-524-574 0-343 198-582 503-582 237 0 487 146 487 559v75H286c9 234 145 362 343 362 132 0 231-58 273-172l174 48C1024-91 857 24 628 24zM287-650h624c-17-190-120-322-304-322-192 0-309 151-320 322" id="aP"/><path fill="#101010" d="M338-1490V0H158v-1490h180" id="aQ"/><path fill="#101010" d="M140 405l46-156c120 36 205 19 263-150l32-93L54-1118h197c107 313 237 620 324 950 87-331 219-637 326-950h196L606 167c-68 178-176 259-334 259-64 0-113-12-132-21" id="aR"/><g id="p"><use transform="matrix(0.01193576388888889,0,0,0.01193576388888889,0,0)" xlink:href="#aL"/><use transform="matrix(0.01193576388888889,0,0,0.01193576388888889,15.683593750000002,0)" xlink:href="#aP"/><use transform="matrix(0.01193576388888889,0,0,0.01193576388888889,29.934895833333336,0)" xlink:href="#ad"/><use transform="matrix(0.01193576388888889,0,0,0.01193576388888889,39.519314236111114,0)" xlink:href="#aQ"/><use transform="matrix(0.01193576388888889,0,0,0.01193576388888889,45.558810763888886,0)" xlink:href="#aR"/></g><path fill="#101010" d="M600 0L52-1490h200c166 485 304 806 458 1336 156-533 285-846 449-1336h202L819 0H600" id="aS"/><path fill="#101010" d="M481 0L54-1118h197c107 314 236 620 325 951 87-331 217-637 324-951h197L670 0H481" id="aT"/><g id="q"><use transform="matrix(0.01193576388888889,0,0,0.01193576388888889,0,0)" xlink:href="#aS"/><use transform="matrix(0.01193576388888889,0,0,0.01193576388888889,16.865234375,0)" xlink:href="#aa"/><use transform="matrix(0.01193576388888889,0,0,0.01193576388888889,22.78537326388889,0)" xlink:href="#aT"/><use transform="matrix(0.01193576388888889,0,0,0.01193576388888889,36.5234375,0)" xlink:href="#aa"/><use transform="matrix(0.01193576388888889,0,0,0.01193576388888889,42.443576388888886,0)" xlink:href="#ae"/><use transform="matrix(0.01193576388888889,0,0,0.01193576388888889,56.16970486111111,0)" xlink:href="#Y"/><use transform="matrix(0.01193576388888889,0,0,0.01193576388888889,70.61197916666666,0)" xlink:href="#aa"/></g><path fill="#101010" d="M789 20C394 20 94-260 94-744c0-487 300-766 695-766s695 279 695 766c0 264-89 467-233 597l215 271h-285L1058-29C976 3 886 20 789 20zm-94-532h261l108 139c70-83 110-208 110-371 0-321-154-495-385-495s-385 175-385 495c0 356 184 537 481 482" id="aU"/><g id="r"><use transform="matrix(0.01193576388888889,0,0,0.01193576388888889,0,0)" xlink:href="#aU"/><use transform="matrix(0.01193576388888889,0,0,0.01193576388888889,18.989800347222225,0)" xlink:href="#aA"/><use transform="matrix(0.01193576388888889,0,0,0.01193576388888889,34.20789930555556,0)" xlink:href="#ar"/><use transform="matrix(0.01193576388888889,0,0,0.01193576388888889,48.39952256944444,0)" xlink:href="#ax"/><use transform="matrix(0.01193576388888889,0,0,0.01193576388888889,55.023871527777786,0)" xlink:href="#ap"/><use transform="matrix(0.01193576388888889,0,0,0.01193576388888889,61.648220486111114,0)" xlink:href="#au"/><use transform="matrix(0.01193576388888889,0,0,0.01193576388888889,71.13715277777779,0)" xlink:href="#aG"/></g><path fill="#101010" d="M338-670V0H158v-1490h180v566c73-149 190-208 336-208 226 0 379 139 379 422V0H872v-695c0-172-96-275-252-275-161 0-282 109-282 300" id="aV"/><g id="s"><use transform="matrix(0.01193576388888889,0,0,0.01193576388888889,0,0)" xlink:href="#aL"/><use transform="matrix(0.01193576388888889,0,0,0.01193576388888889,15.683593750000002,0)" xlink:href="#ac"/><use transform="matrix(0.01193576388888889,0,0,0.01193576388888889,30.137803819444454,0)" xlink:href="#aV"/><use transform="matrix(0.01193576388888889,0,0,0.01193576388888889,44.5920138888889,0)" xlink:href="#aP"/><use transform="matrix(0.01193576388888889,0,0,0.01193576388888889,58.843315972222236,0)" xlink:href="#Y"/><use transform="matrix(0.01193576388888889,0,0,0.01193576388888889,73.2855902777778,0)" xlink:href="#Z"/><use transform="matrix(0.01193576388888889,0,0,0.01193576388888889,88.25303819444447,0)" xlink:href="#ad"/><use transform="matrix(0.01193576388888889,0,0,0.01193576388888889,97.83745659722226,0)" xlink:href="#aa"/></g><path fill="#101010" d="M789 20C394 20 94-260 94-744c0-487 300-766 695-766s695 279 695 766c0 485-300 764-695 764zm0-271c231 0 385-174 385-493 0-321-154-495-385-495s-385 175-385 495c0 319 154 493 385 493" id="aW"/><path fill="#101010" d="M128 418v-1536h295v188h14c41-89 129-202 319-202 248 0 453 193 453 575 0 372-197 576-455 576-183 0-275-108-317-198h-9v597H128zm534-640c156 0 240-139 240-336 0-196-83-334-240-334-154 0-241 131-241 334 0 202 88 336 241 336" id="aX"/><g id="t"><use transform="matrix(0.01193576388888889,0,0,0.01193576388888889,0,0)" xlink:href="#aW"/><use transform="matrix(0.01193576388888889,0,0,0.01193576388888889,18.834635416666668,0)" xlink:href="#aX"/><use transform="matrix(0.01193576388888889,0,0,0.01193576388888889,34.24370659722223,0)" xlink:href="#az"/><use transform="matrix(0.01193576388888889,0,0,0.01193576388888889,48.80533854166667,0)" xlink:href="#as"/><use transform="matrix(0.01193576388888889,0,0,0.01193576388888889,58.42556423611113,0)" xlink:href="#ar"/><use transform="matrix(0.01193576388888889,0,0,0.01193576388888889,72.61718750000001,0)" xlink:href="#au"/><use transform="matrix(0.01193576388888889,0,0,0.01193576388888889,81.56901041666669,0)" xlink:href="#ap"/><use transform="matrix(0.01193576388888889,0,0,0.01193576388888889,88.19335937500001,0)" xlink:href="#an"/><use transform="matrix(0.01193576388888889,0,0,0.01193576388888889,103.18467881944446,0)" xlink:href="#aH"/><use transform="matrix(0.01193576388888889,0,0,0.01193576388888889,118.40277777777779,0)" xlink:href="#ar"/><use transform="matrix(0.01193576388888889,0,0,0.01193576388888889,132.59440104166669,0)" xlink:href="#ax"/></g><path fill="#101010" d="M180 0v-1490h190v644h782v-644h190V0h-190v-678H370V0H180" id="aY"/><path fill="#101010" d="M678-1118v154H420V0H240v-964H20v-154h220v-149c0-194 155-293 318-293 85 0 141 18 168 30l-50 154c-19-6-47-17-97-17-111 0-159 58-159 166v109h258" id="aZ"/><g id="u"><use transform="matrix(0.01193576388888889,0,0,0.01193576388888889,0,0)" xlink:href="#aY"/><use transform="matrix(0.01193576388888889,0,0,0.01193576388888889,18.16623263888889,0)" xlink:href="#ae"/><use transform="matrix(0.01193576388888889,0,0,0.01193576388888889,31.892361111111114,0)" xlink:href="#aZ"/><use transform="matrix(0.01193576388888889,0,0,0.01193576388888889,40.93967013888889,0)" xlink:href="#aa"/><use transform="matrix(0.01193576388888889,0,0,0.01193576388888889,46.859809027777786,0)" xlink:href="#Z"/></g><g id="v"><use transform="matrix(0.01193576388888889,0,0,0.01193576388888889,0,0)" xlink:href="#ab"/><use transform="matrix(0.01193576388888889,0,0,0.01193576388888889,15.600043402777777,0)" xlink:href="#ac"/><use transform="matrix(0.01193576388888889,0,0,0.01193576388888889,30.054253472222218,0)" xlink:href="#ad"/><use transform="matrix(0.01193576388888889,0,0,0.01193576388888889,39.638671875,0)" xlink:href="#Y"/><use transform="matrix(0.01193576388888889,0,0,0.01193576388888889,54.08094618055556,0)" xlink:href="#ae"/><use transform="matrix(0.01193576388888889,0,0,0.01193576388888889,67.80707465277779,0)" xlink:href="#aP"/><use transform="matrix(0.01193576388888889,0,0,0.01193576388888889,82.05837673611111,0)" xlink:href="#Y"/></g><g id="w"><use transform="matrix(0.01193576388888889,0,0,0.01193576388888889,0,0)" xlink:href="#aU"/><use transform="matrix(0.01193576388888889,0,0,0.01193576388888889,18.989800347222225,0)" xlink:href="#aA"/><use transform="matrix(0.01193576388888889,0,0,0.01193576388888889,34.20789930555556,0)" xlink:href="#ar"/><use transform="matrix(0.01193576388888889,0,0,0.01193576388888889,48.39952256944444,0)" xlink:href="#aH"/><use transform="matrix(0.01193576388888889,0,0,0.01193576388888889,63.617621527777786,0)" xlink:href="#au"/><use transform="matrix(0.01193576388888889,0,0,0.01193576388888889,72.56944444444444,0)" xlink:href="#ap"/><use transform="matrix(0.01193576388888889,0,0,0.01193576388888889,79.19379340277777,0)" xlink:href="#au"/><use transform="matrix(0.01193576388888889,0,0,0.01193576388888889,88.68272569444444,0)" xlink:href="#aG"/></g><path fill="#101010" d="M180 0v-1490h224l606 953c40 63 108 177 176 312-27-437-7-821-13-1265h190V0h-226C860-448 622-778 356-1262c27 476 11 792 15 1262H180" id="ba"/><path fill="#101010" d="M677 24c-213 0-288-135-325-197h-20V0H158v-1490h180v551h14c37-59 106-193 324-193 279 0 474 222 474 576 0 356-194 580-473 580zm-27-161c209 0 317-186 317-421 0-232-105-413-317-413-206 0-314 166-314 413 0 249 111 421 314 421" id="bb"/><g id="x"><use transform="matrix(0.01193576388888889,0,0,0.01193576388888889,0,0)" xlink:href="#ba"/><use transform="matrix(0.01193576388888889,0,0,0.01193576388888889,18.416883680555557,0)" xlink:href="#ae"/><use transform="matrix(0.01193576388888889,0,0,0.01193576388888889,32.14301215277778,0)" xlink:href="#bb"/><use transform="matrix(0.01193576388888889,0,0,0.01193576388888889,47.11046006944444,0)" xlink:href="#aa"/><use transform="matrix(0.01193576388888889,0,0,0.01193576388888889,53.03059895833333,0)" xlink:href="#aQ"/><use transform="matrix(0.01193576388888889,0,0,0.01193576388888889,58.950737847222214,0)" xlink:href="#ae"/></g><path fill="#101010" d="M180 0v-1490h901v168H370v510h643v168H370V0H180" id="bc"/><path fill="#101010" d="M598-1118v154H368v674c0 100 37 144 132 144 23 0 62-6 92-12L629-6c-37 13-88 20-134 20-193 0-307-107-307-290v-688H20v-154h168v-266h180v266h230" id="bd"/><g id="y"><use transform="matrix(0.01193576388888889,0,0,0.01193576388888889,0,0)" xlink:href="#bc"/><use transform="matrix(0.01193576388888889,0,0,0.01193576388888889,13.463541666666668,0)" xlink:href="#aP"/><use transform="matrix(0.01193576388888889,0,0,0.01193576388888889,27.714843750000004,0)" xlink:href="#bb"/><use transform="matrix(0.01193576388888889,0,0,0.01193576388888889,42.204861111111114,0)" xlink:href="#aR"/><use transform="matrix(0.01193576388888889,0,0,0.01193576388888889,55.823567708333336,0)" xlink:href="#ae"/><use transform="matrix(0.01193576388888889,0,0,0.01193576388888889,69.54969618055557,0)" xlink:href="#Y"/><use transform="matrix(0.01193576388888889,0,0,0.01193576388888889,83.99197048611113,0)" xlink:href="#bd"/><use transform="matrix(0.01193576388888889,0,0,0.01193576388888889,91.98893229166669,0)" xlink:href="#aa"/></g><path fill="#101010" d="M625 442c-280 0-454-114-503-274l258-72c28 63 97 128 243 128 153 0 246-69 246-216v-206h-23C805-108 717-16 536-16 284-16 81-191 81-561c0-378 208-571 456-571 188 0 280 113 321 202h13v-188h295V-9c0 303-226 451-541 451zm5-686c153 0 240-119 240-319 0-198-86-329-240-329-158 0-241 137-241 329 0 195 85 319 241 319" id="be"/><g id="z"><use transform="matrix(0.01193576388888889,0,0,0.01193576388888889,0,0)" xlink:href="#aJ"/><use transform="matrix(0.01193576388888889,0,0,0.01193576388888889,14.848090277777779,0)" xlink:href="#aH"/><use transform="matrix(0.01193576388888889,0,0,0.01193576388888889,30.066189236111114,0)" xlink:href="#be"/><use transform="matrix(0.01193576388888889,0,0,0.01193576388888889,45.511067708333336,0)" xlink:href="#ap"/><use transform="matrix(0.01193576388888889,0,0,0.01193576388888889,52.13541666666667,0)" xlink:href="#aH"/><use transform="matrix(0.01193576388888889,0,0,0.01193576388888889,67.353515625,0)" xlink:href="#az"/><use transform="matrix(0.01193576388888889,0,0,0.01193576388888889,81.91514756944444,0)" xlink:href="#az"/><use transform="matrix(0.01193576388888889,0,0,0.01193576388888889,96.47677951388889,0)" xlink:href="#as"/><use transform="matrix(0.01193576388888889,0,0,0.01193576388888889,106.61024305555554,0)" xlink:href="#ap"/><use transform="matrix(0.01193576388888889,0,0,0.01193576388888889,113.23459201388887,0)" xlink:href="#aH"/><use transform="matrix(0.01193576388888889,0,0,0.01193576388888889,128.4526909722222,0)" xlink:href="#be"/></g><path fill="#101010" d="M135 0v-1490h305v1237h643V0H135" id="bf"/><path fill="#101010" d="M628 22C291 22 81-210 81-554c0-346 210-578 547-578 265 0 455 142 497 372l-279 52c-25-116-99-188-215-188-160 0-244 139-244 341 0 200 84 341 244 341 116 0 193-74 217-195l279 51C1085-123 896 22 628 22" id="bg"/><g id="A"><use transform="matrix(0.01193576388888889,0,0,0.01193576388888889,0,0)" xlink:href="#bf"/><use transform="matrix(0.01193576388888889,0,0,0.01193576388888889,13.821614583333334,0)" xlink:href="#an"/><use transform="matrix(0.01193576388888889,0,0,0.01193576388888889,28.81293402777778,0)" xlink:href="#be"/><use transform="matrix(0.01193576388888889,0,0,0.01193576388888889,44.2578125,0)" xlink:href="#ap"/><use transform="matrix(0.01193576388888889,0,0,0.01193576388888889,50.882161458333336,0)" xlink:href="#aq"/><use transform="matrix(0.01193576388888889,0,0,0.01193576388888889,64.57248263888889,0)" xlink:href="#au"/><use transform="matrix(0.01193576388888889,0,0,0.01193576388888889,73.52430555555556,0)" xlink:href="#ap"/><use transform="matrix(0.01193576388888889,0,0,0.01193576388888889,80.14865451388889,0)" xlink:href="#bg"/></g><g id="B"><use transform="matrix(0.01193576388888889,0,0,0.01193576388888889,0,0)" xlink:href="#aE"/><use transform="matrix(0.01193576388888889,0,0,0.01193576388888889,16.005859375,0)" xlink:href="#aA"/><use transform="matrix(0.01193576388888889,0,0,0.01193576388888889,31.223958333333336,0)" xlink:href="#aX"/><use transform="matrix(0.01193576388888889,0,0,0.01193576388888889,46.63302951388889,0)" xlink:href="#az"/><use transform="matrix(0.01193576388888889,0,0,0.01193576388888889,61.194661458333336,0)" xlink:href="#as"/><use transform="matrix(0.01193576388888889,0,0,0.01193576388888889,71.53103298611111,0)" xlink:href="#aK"/><use transform="matrix(0.01193576388888889,0,0,0.01193576388888889,86.18815104166667,0)" xlink:href="#ap"/><use transform="matrix(0.01193576388888889,0,0,0.01193576388888889,92.8125,0)" xlink:href="#aq"/><use transform="matrix(0.01193576388888889,0,0,0.01193576388888889,106.50282118055556,0)" xlink:href="#an"/><use transform="matrix(0.01193576388888889,0,0,0.01193576388888889,121.49414062500001,0)" xlink:href="#as"/></g><path fill="#101010" d="M180 0v-1490h270l367 940c28 72 75 218 110 339 35-117 81-264 110-339l362-940h271V0h-187c2-448-5-837 7-1287-157 497-311 829-483 1287H842C666-458 514-784 354-1284c12 438 5 843 7 1284H180" id="bh"/><path fill="#101010" d="M295 13c-75 0-135-60-135-135s60-135 135-135 135 60 135 135S370 13 295 13" id="bi"/><g id="C"><use transform="matrix(0.01193576388888889,0,0,0.01193576388888889,0,0)" xlink:href="#bh"/><use transform="matrix(0.01193576388888889,0,0,0.01193576388888889,22.081163194444446,0)" xlink:href="#bi"/></g><path fill="#101010" d="M458 0L52-1490h194c108 439 233 855 324 1313 92-459 221-873 331-1313h216c110 438 234 854 330 1307 92-455 216-869 323-1307h196L1558 0h-221l-256-944c-26-95-50-200-73-331-22 122-44 223-73 331L680 0H458" id="bj"/><g id="D"><use transform="matrix(0.01193576388888889,0,0,0.01193576388888889,0,0)" xlink:href="#bj"/><use transform="matrix(0.01193576388888889,0,0,0.01193576388888889,22.845052083333336,0)" xlink:href="#ae"/><use transform="matrix(0.01193576388888889,0,0,0.01193576388888889,36.57118055555556,0)" xlink:href="#aV"/><use transform="matrix(0.01193576388888889,0,0,0.01193576388888889,51.02539062500001,0)" xlink:href="#ae"/><use transform="matrix(0.01193576388888889,0,0,0.01193576388888889,64.39344618055556,0)" xlink:href="#aR"/><use transform="matrix(0.01193576388888889,0,0,0.01193576388888889,78.13151041666667,0)" xlink:href="#ac"/></g><g id="E"><use transform="matrix(0.01193576388888889,0,0,0.01193576388888889,0,0)" xlink:href="#X"/><use transform="matrix(0.01193576388888889,0,0,0.01193576388888889,16.865234375,0)" xlink:href="#ad"/><use transform="matrix(0.01193576388888889,0,0,0.01193576388888889,26.44965277777778,0)" xlink:href="#aa"/></g><path fill="#101010" d="M180 0v-1490h510c348 0 508 194 508 460 0 198-88 351-276 417L1256 0h-220L726-579c-117 2-238 0-356 1V0H180zm190-747h312c235 0 327-108 327-283 0-177-92-293-329-293H370v576" id="bk"/><path fill="#101010" d="M613 24c-304 0-509-231-509-576 0-350 205-580 509-580 216 0 392 114 453 309l-173 49c-33-115-133-197-280-197-223 0-326 196-326 419 0 220 103 415 326 415 150 0 252-85 285-206l172 49C1010-95 832 24 613 24" id="bl"/><path fill="#101010" d="M158 0v-1118h175l1 205c55-151 181-225 313-225 147 0 245 90 285 228 53-141 190-228 352-228 194 0 352 125 352 384V0h-181v-749c0-161-105-225-225-225-151 0-243 103-243 244V0H807v-767c0-124-93-207-219-207-131 0-250 92-250 270V0H158" id="bm"/><g id="F"><use transform="matrix(0.01193576388888889,0,0,0.01193576388888889,0,0)" xlink:href="#bk"/><use transform="matrix(0.01193576388888889,0,0,0.01193576388888889,15.611979166666668,0)" xlink:href="#ae"/><use transform="matrix(0.01193576388888889,0,0,0.01193576388888889,29.338107638888893,0)" xlink:href="#bl"/><use transform="matrix(0.01193576388888889,0,0,0.01193576388888889,43.30295138888889,0)" xlink:href="#aV"/><use transform="matrix(0.01193576388888889,0,0,0.01193576388888889,57.757161458333336,0)" xlink:href="#bm"/><use transform="matrix(0.01193576388888889,0,0,0.01193576388888889,79.16992187500001,0)" xlink:href="#ae"/><use transform="matrix(0.01193576388888889,0,0,0.01193576388888889,92.89605034722224,0)" xlink:href="#Z"/><use transform="matrix(0.01193576388888889,0,0,0.01193576388888889,107.86349826388891,0)" xlink:href="#aa"/></g><g id="G"><use transform="matrix(0.01193576388888889,0,0,0.01193576388888889,0,0)" xlink:href="#bk"/><use transform="matrix(0.01193576388888889,0,0,0.01193576388888889,15.37326388888889,0)" xlink:href="#aM"/><use transform="matrix(0.01193576388888889,0,0,0.01193576388888889,30.030381944444454,0)" xlink:href="#Y"/><use transform="matrix(0.01193576388888889,0,0,0.01193576388888889,44.47265625000001,0)" xlink:href="#aa"/></g><path fill="#101010" d="M645 0H180v-1490h484c435 0 692 280 692 742 0 466-257 748-711 748zM370-168h263c363 0 539-218 539-580 0-358-176-574-521-574H370v1154" id="bn"/><g id="H"><use transform="matrix(0.01193576388888889,0,0,0.01193576388888889,0,0)" xlink:href="#bn"/><use transform="matrix(0.01193576388888889,0,0,0.01193576388888889,17.64105902777778,0)" xlink:href="#aa"/><use transform="matrix(0.01193576388888889,0,0,0.01193576388888889,23.561197916666668,0)" xlink:href="#ad"/><use transform="matrix(0.01193576388888889,0,0,0.01193576388888889,33.14561631944444,0)" xlink:href="#bm"/><use transform="matrix(0.01193576388888889,0,0,0.01193576388888889,54.558376736111114,0)" xlink:href="#ae"/><use transform="matrix(0.01193576388888889,0,0,0.01193576388888889,68.28450520833334,0)" xlink:href="#Y"/></g><path fill="#101010" d="M180 0v-1490h190v1322h690V0H180" id="bo"/><g id="I"><use transform="matrix(0.01193576388888889,0,0,0.01193576388888889,0,0)" xlink:href="#bo"/><use transform="matrix(0.01193576388888889,0,0,0.01193576388888889,13.821614583333334,0)" xlink:href="#ac"/><use transform="matrix(0.01193576388888889,0,0,0.01193576388888889,28.27582465277778,0)" xlink:href="#bb"/><use transform="matrix(0.01193576388888889,0,0,0.01193576388888889,43.48198784722223,0)" xlink:href="#ae"/><use transform="matrix(0.01193576388888889,0,0,0.01193576388888889,56.850043402777786,0)" xlink:href="#aR"/></g><g id="J"><use transform="matrix(0.01193576388888889,0,0,0.01193576388888889,0,0)" xlink:href="#X"/><use transform="matrix(0.01193576388888889,0,0,0.01193576388888889,16.865234375,0)" xlink:href="#ad"/><use transform="matrix(0.01193576388888889,0,0,0.01193576388888889,26.44965277777778,0)" xlink:href="#aR"/><use transform="matrix(0.01193576388888889,0,0,0.01193576388888889,40.068359375,0)" xlink:href="#ae"/></g><g id="K"><use transform="matrix(0.01193576388888889,0,0,0.01193576388888889,0,0)" xlink:href="#aS"/><use transform="matrix(0.01193576388888889,0,0,0.01193576388888889,15.623914930555554,0)" xlink:href="#ae"/><use transform="matrix(0.01193576388888889,0,0,0.01193576388888889,29.35004340277778,0)" xlink:href="#aQ"/><use transform="matrix(0.01193576388888889,0,0,0.01193576388888889,35.27018229166667,0)" xlink:href="#aP"/><use transform="matrix(0.01193576388888889,0,0,0.01193576388888889,49.52148437500001,0)" xlink:href="#Y"/><use transform="matrix(0.01193576388888889,0,0,0.01193576388888889,63.963758680555564,0)" xlink:href="#bd"/><use transform="matrix(0.01193576388888889,0,0,0.01193576388888889,71.96072048611111,0)" xlink:href="#aa"/><use transform="matrix(0.01193576388888889,0,0,0.01193576388888889,77.880859375,0)" xlink:href="#Y"/><use transform="matrix(0.01193576388888889,0,0,0.01193576388888889,92.32313368055556,0)" xlink:href="#aM"/></g><g id="L"><use transform="matrix(0.01193576388888889,0,0,0.01193576388888889,0,0)" xlink:href="#bc"/><use transform="matrix(0.01193576388888889,0,0,0.01193576388888889,13.463541666666668,0)" xlink:href="#bi"/></g><g id="M"><use transform="matrix(0.01193576388888889,0,0,0.01193576388888889,0,0)" xlink:href="#am"/><use transform="matrix(0.01193576388888889,0,0,0.01193576388888889,16.614583333333336,0)" xlink:href="#an"/><use transform="matrix(0.01193576388888889,0,0,0.01193576388888889,31.60590277777778,0)" xlink:href="#ao"/><use transform="matrix(0.01193576388888889,0,0,0.01193576388888889,53.913845486111114,0)" xlink:href="#ap"/><use transform="matrix(0.01193576388888889,0,0,0.01193576388888889,60.53819444444445,0)" xlink:href="#aq"/><use transform="matrix(0.01193576388888889,0,0,0.01193576388888889,74.228515625,0)" xlink:href="#ar"/><use transform="matrix(0.01193576388888889,0,0,0.01193576388888889,88.42013888888889,0)" xlink:href="#as"/><use transform="matrix(0.01193576388888889,0,0,0.01193576388888889,98.55360243055554,0)" xlink:href="#ap"/><use transform="matrix(0.01193576388888889,0,0,0.01193576388888889,105.17795138888887,0)" xlink:href="#aq"/></g></defs></g></svg>